<svg width="40" height="32" viewBox="0 0 40 32" fill="none" xmlns="http://www.w3.org/2000/svg">
<path fill-rule="evenodd" clip-rule="evenodd" d="M40 10C40 11.1046 39.1046 12 38 12C35.7909 12 34 13.7909 34 16C34 18.2091 35.7909 20 38 20C39.1046 20 40 20.8954 40 22V26C40 29.3137 37.3137 32 34 32H26V26C26 24.8954 25.1046 24 24 24C22.8954 24 22 24.8954 22 26V32H6C2.68629 32 0 29.3137 0 26V22C0 20.8954 0.895431 20 2 20C4.20914 20 6 18.2091 6 16C6 13.7909 4.20914 12 2 12C0.895431 12 0 11.1046 0 10V6C0 2.68629 2.68629 0 6 0H22V6C22 7.10457 22.8954 8 24 8C25.1046 8 26 7.10457 26 6V0H34C37.3137 0 40 2.68629 40 6V10ZM24 20C25.1046 20 26 19.1046 26 18V14C26 12.8954 25.1046 12 24 12C22.8954 12 22 12.8954 22 14V18C22 19.1046 22.8954 20 24 20Z" fill="#6B7CFF"/>
</svg>
