<svg width="44" height="44" viewBox="0 0 44 44" fill="none" xmlns="http://www.w3.org/2000/svg">
<path d="M16.6602 16.1601C16.6602 15.884 16.4363 15.6601 16.1602 15.6601C15.8884 15.6704 15.6704 15.8883 15.6602 16.1601C15.6602 16.7201 16.6602 16.7201 16.6602 16.1601Z" fill="#6B7CFF"/>
<path d="M27.8398 27.34C27.5637 27.34 27.3398 27.5638 27.3398 27.84C27.3398 28.38 28.3398 28.38 28.3398 27.84C28.3398 27.5638 28.116 27.34 27.8398 27.34Z" fill="#6B7CFF"/>
<path fill-rule="evenodd" clip-rule="evenodd" d="M39.1601 14.8001C39.5522 15.5412 40.0583 16.2161 40.6601 16.8001C42.215 18.1162 43.2093 19.976 43.4401 22.0001C43.2111 23.9739 42.2558 25.7919 40.7601 27.1001C40.1583 27.684 39.6522 28.3589 39.2601 29.1001C39.0113 29.9296 38.9031 30.7948 38.9401 31.6601C39.1072 33.6411 38.5056 35.6105 37.2601 37.1601C35.7105 38.4056 33.7411 39.0072 31.7601 38.8401C30.8948 38.8031 30.0296 38.9113 29.2001 39.1601C28.4623 39.5575 27.7882 40.0631 27.2001 40.6601C25.8932 42.2264 24.0285 43.2233 22.0001 43.4401C20.0221 43.2244 18.1996 42.2667 16.9001 40.7601C16.3119 40.1631 15.6378 39.6575 14.9001 39.2601C14.0706 39.0113 13.2053 38.9031 12.3401 38.9401C10.359 39.1072 8.38959 38.5056 6.84006 37.2601C5.59448 35.7105 4.99291 33.7411 5.16006 31.7601C5.19698 30.8948 5.08882 30.0296 4.84006 29.2001C4.44796 28.4589 3.94178 27.784 3.34006 27.2001C1.78511 25.8839 0.79084 24.0241 0.560059 22.0001C0.789011 20.0262 1.74435 18.2082 3.24006 16.9001C3.84178 16.3161 4.34796 15.6412 4.74006 14.9001C4.98882 14.0706 5.09698 13.2053 5.06006 12.3401C4.89291 10.359 5.49448 8.38959 6.74006 6.84006C8.28959 5.59448 10.259 4.99291 12.2401 5.16006C13.1053 5.19698 13.9706 5.08882 14.8001 4.84006C15.5378 4.44262 16.2119 3.93702 16.8001 3.34006C18.107 1.77371 19.9716 0.776817 22.0001 0.560059C23.978 0.775697 25.8005 1.73343 27.1001 3.24006C27.6882 3.83702 28.3623 4.34262 29.1001 4.74006C29.9296 4.98882 30.7948 5.09698 31.6601 5.06006C33.6411 4.89291 35.6105 5.49448 37.1601 6.74006C38.4056 8.28959 39.0072 10.259 38.8401 12.2401C38.8031 13.1053 38.9113 13.9706 39.1601 14.8001ZM16.1601 11.6601C13.6748 11.6601 11.6601 13.6748 11.6601 16.1601C11.6601 18.6453 13.6748 20.6601 16.1601 20.6601C18.6453 20.6601 20.6601 18.6453 20.6601 16.1601C20.6601 13.6748 18.6453 11.6601 16.1601 11.6601ZM16.7401 30.1601C16.3675 30.5295 15.8647 30.7379 15.3401 30.7401C14.8129 30.6809 14.3309 30.4147 14.0001 30.0001C13.2246 29.22 13.2246 27.9601 14.0001 27.1801L27.2601 14.0001C27.6857 13.2813 28.5133 12.9028 29.3355 13.0509C30.1576 13.199 30.8011 13.8425 30.9492 14.6646C31.0973 15.4868 30.7188 16.3144 30.0001 16.7401L16.7401 30.1601ZM23.3401 27.9201C23.3401 30.4053 25.3548 32.4201 27.8401 32.4201V32.3401C30.2944 32.3404 32.2964 30.374 32.3401 27.9201C32.3401 25.4348 30.3253 23.4201 27.8401 23.4201C25.3548 23.4201 23.3401 25.4348 23.3401 27.9201Z" fill="#6B7CFF"/>
</svg>
