<svg width="40" height="40" viewBox="0 0 40 40" fill="none" xmlns="http://www.w3.org/2000/svg">
<path fill-rule="evenodd" clip-rule="evenodd" d="M34 0H6C2.68629 0 0 2.68629 0 6V34C0 37.3137 2.68629 40 6 40H34C37.3137 40 40 37.3137 40 34V6C40 2.68629 37.3137 0 34 0ZM11.84 30.76C11.7448 31.0055 11.6021 31.2298 11.42 31.42C11.2256 31.5967 11.0024 31.7387 10.76 31.84C10.5196 31.9425 10.2614 31.9968 10 32C9.47047 31.9926 8.96327 31.7855 8.58 31.42C8.39792 31.2298 8.25519 31.0055 8.16 30.76C7.94605 30.2759 7.94605 29.7241 8.16 29.24C8.25519 28.9945 8.39792 28.7702 8.58 28.58C9.15512 28.0125 10.0152 27.8468 10.76 28.16C11.0024 28.2613 11.2256 28.4033 11.42 28.58C11.6021 28.7702 11.7448 28.9945 11.84 29.24C12.054 29.7241 12.054 30.2759 11.84 30.76ZM11.88 20.76C11.9377 20.6466 11.9781 20.5253 12 20.4C12.0098 20.2668 12.0098 20.1332 12 20C11.9926 19.4705 11.7855 18.9633 11.42 18.58C11.2256 18.4033 11.0024 18.2613 10.76 18.16C10.0152 17.8468 9.15512 18.0125 8.58 18.58C8.3948 18.7677 8.25163 18.9927 8.16 19.24C8.05752 19.4804 8.00316 19.7386 8 20C7.99693 20.5316 8.20563 21.0426 8.58 21.42C8.96327 21.7855 9.47047 21.9926 10 22C10.2748 22.0022 10.5472 21.9477 10.8 21.84C11.0424 21.7387 11.2656 21.5967 11.46 21.42L11.7 21.12C11.7757 21.0085 11.8362 20.8875 11.88 20.76ZM11.42 11.42C11.2256 11.5967 11.0024 11.7387 10.76 11.84C10.5226 11.952 10.2624 12.0068 10 12C9.47047 11.9926 8.96327 11.7855 8.58 11.42C8.20563 11.0426 7.99693 10.5316 8 10C8.00316 9.73865 8.05752 9.48044 8.16 9.24C8.26128 8.99763 8.40334 8.7744 8.58 8.58C9.15512 8.01251 10.0152 7.84681 10.76 8.16C11.0024 8.26128 11.2256 8.40334 11.42 8.58C11.5967 8.7744 11.7387 8.99763 11.84 9.24C11.9425 9.48044 11.9968 9.73865 12 10C11.9926 10.5295 11.7855 11.0367 11.42 11.42ZM18 32H30C31.1046 32 32 31.1046 32 30C32 28.8954 31.1046 28 30 28H18C16.8954 28 16 28.8954 16 30C16 31.1046 16.8954 32 18 32ZM30 22H18C16.8954 22 16 21.1046 16 20C16 18.8954 16.8954 18 18 18H30C31.1046 18 32 18.8954 32 20C32 21.1046 31.1046 22 30 22ZM18 12H30C31.1046 12 32 11.1046 32 10C32 8.89543 31.1046 8 30 8H18C16.8954 8 16 8.89543 16 10C16 11.1046 16.8954 12 18 12Z" fill="#6B7CFF"/>
</svg>
